<?xml version="1.0" encoding="UTF-8"?>
<svg xmlns="http://www.w3.org/2000/svg" xmlns:xlink="http://www.w3.org/1999/xlink" width="100pt" height="100pt" viewBox="0 0 100 100" version="1.1">
<g id="surface1232614">
<path style=" stroke:none;fill-rule:nonzero;fill:rgb(100%,100%,100%);fill-opacity:1;" d="M 50 4 C 24.632812 4 4 24.632812 4 50 C 4 75.367188 24.632812 96 50 96 C 75.367188 96 96 75.367188 96 50 C 96 24.632812 75.367188 4 50 4 Z M 72.472656 41.046875 C 72.492188 41.519531 72.507812 42 72.507812 42.480469 C 72.507812 57.117188 61.359375 74 40.980469 74 C 34.726562 74 28.898438 72.164062 24 69.023438 C 24.867188 69.125 25.742188 69.175781 26.640625 69.175781 C 31.835938 69.175781 36.613281 67.40625 40.398438 64.4375 C 35.550781 64.347656 31.464844 61.136719 30.050781 56.742188 C 30.726562 56.871094 31.421875 56.941406 32.136719 56.941406 C 33.148438 56.941406 34.128906 56.808594 35.054688 56.550781 C 29.988281 55.53125 26.171875 51.058594 26.171875 45.6875 C 26.171875 45.640625 26.171875 45.59375 26.171875 45.546875 C 27.664062 46.378906 29.371094 46.878906 31.191406 46.9375 C 28.214844 44.945312 26.261719 41.558594 26.261719 37.714844 C 26.261719 35.683594 26.804688 33.78125 27.761719 32.140625 C 33.226562 38.84375 41.390625 43.253906 50.597656 43.71875 C 50.40625 42.90625 50.304688 42.0625 50.304688 41.195312 C 50.304688 35.074219 55.265625 30.117188 61.386719 30.117188 C 64.570312 30.117188 67.449219 31.460938 69.46875 33.613281 C 71.992188 33.117188 74.367188 32.195312 76.507812 30.929688 C 75.679688 33.511719 73.921875 35.683594 71.632812 37.054688 C 73.875 36.785156 76.007812 36.191406 77.996094 35.308594 C 76.515625 37.53125 74.636719 39.484375 72.472656 41.046875 Z M 72.472656 41.046875 "/>
</g>
</svg>
